<svg xmlns="http://www.w3.org/2000/svg" xmlns:xlink="http://www.w3.org/1999/xlink" viewBox="0 0 370 370">
	<g style="fill:white;fill-opacity:1;stroke:black;stroke-width:0;stroke-linejoin:round;stroke-miterlimit:4;stroke-dasharray:none;stroke-opacity:1">
		<g id="Background">
			<path id="bgshield" style="stroke-width:1"
			d="m 15,5 v 300 a 40,40 90 0 0 40,40 h 102 a 40,40 60 0 1 28,20 a 40,40 60 0 1 28,-20 h 102 a 40,40 90 0 0 40,-40 v -300 z"/>
		</g>
		<g id="GitHub" transform="translate(64,108) scale(6.7)">
			<path fill-rule="evenodd" clip-rule="evenodd" fill="#191717" d="M18,1.4C9,1.4,1.7,8.7,1.7,17.7c0,7.2,4.7,13.3,11.1,15.5
			c0.8,0.1,1.1-0.4,1.1-0.8c0-0.4,0-1.4,0-2.8c-4.5,1-5.5-2.2-5.5-2.2c-0.7-1.9-1.8-2.4-1.8-2.4c-1.5-1,0.1-1,0.1-1
			c1.6,0.1,2.5,1.7,2.5,1.7c1.5,2.5,3.8,1.8,4.7,1.4c0.1-1.1,0.6-1.8,1-2.2c-3.6-0.4-7.4-1.8-7.4-8.1c0-1.8,0.6-3.2,1.7-4.4
			c-0.2-0.4-0.7-2.1,0.2-4.3c0,0,1.4-0.4,4.5,1.7c1.3-0.4,2.7-0.5,4.1-0.5c1.4,0,2.8,0.2,4.1,0.5c3.1-2.1,4.5-1.7,4.5-1.7
			c0.9,2.2,0.3,3.9,0.2,4.3c1,1.1,1.7,2.6,1.7,4.4c0,6.3-3.8,7.6-7.4,8c0.6,0.5,1.1,1.5,1.1,3c0,2.2,0,3.9,0,4.5
			c0,0.4,0.3,0.9,1.1,0.8c6.5-2.2,11.1-8.3,11.1-15.5C34.3,8.7,27,1.4,18,1.4z"/>
		</g>
		<g id="Corner">
			<rect id="corner" width="113" height="113" x="15" y="5"	style="stroke-width:1"/>
		</g>
		<g id="A17" transform="translate(25.4,18.2) scale(0.33)">
			<path id="letterA" style="fill:red;stroke:none"
				d="m 10,233 l 84,-146 C 102.8,73 110,54 132,54 h 23 v 179 h-29 v-38 h-62.2 l 12.7,-22 h 49.5 v-82 c -5,2 -7.5,10 -11,15 L 42,233 z"/>
			<path id="digit1" style="fill:#00005c;stroke-width:0.25"
				d="m 185,127 v -50 c -3,2.5 -7,5 -11,6 16,-14 17,-29 24,-29 v 80 c -4,-1 -9,-1 -13,0 z"/>
			<path id="digit7" style="fill:#00005c;stroke-width:0.25"
				d="m 212,165 c 17,-54 42,-92 56,-106 -23,0 -37,0 -50,11 c -6,-5 -5,-16 -8,-16 h 66 c -13,19 -41,72 -49,109 -5,0 -11,1 -15,2 z"/>
		</g>
	</g>
</svg>