<svg version="1" xmlns="http://www.w3.org/2000/svg" width="933.333" height="933.333" viewBox="0 0 700.000000 700.000000"><path d="M27.7 8.7c-1.2 1.1-.8 573 .4 580.2 2.4 14.9 9.6 29.4 20.2 40.8 9.7 10.4 20.7 16.9 38.2 22.4 3.1 1 27.9 1.4 109.5 1.9 104.4.5 105.6.5 111 2.6 17.3 6.6 32 18.2 39.7 31.1 1.4 2.4 2.9 4.3 3.3 4.3.4 0 1.9-1.9 3.3-4.2 7.7-13 22.4-24.6 39.7-31.2 5.4-2.1 6.6-2.1 111-2.6 81.6-.5 106.4-.9 109.5-1.9 17.5-5.5 28.5-12 38.2-22.4 10.8-11.6 18-26.2 20.3-41.4.7-4.6 1-98.4.8-293.3l-.3-286.5-322.1-.3c-177.1-.1-322.4.1-322.7.5zM241 116.5V222H30V11h211v105.5zm428.8 184.7l-.3 290.3-2.3 7c-8 24-25.2 41.2-49 49.4l-7.7 2.6-105.5.5-105.5.5-6.5 2.3c-15.6 5.7-28.9 15-37.4 26.3-2.7 3.5-5.2 6.4-5.6 6.4-.4 0-2.9-2.9-5.6-6.4-8.5-11.3-21.8-20.6-37.4-26.3l-6.5-2.3L195 651l-105.5-.5-7.7-2.6c-23.8-8.2-41-25.4-49-49.4l-2.3-7-.3-183.2L30 225l106.2-.2 106.3-.3.3-106.8L243 11h427l-.2 290.2z"/><path d="M122.2 69.7c-1.8.9-5 3.5-7 5.8s-15.8 25.3-30.6 51.1c-14.9 25.8-27.8 48.4-28.9 50.1l-1.9 3.3h20.8l6.5-11.3 6.5-11.2 19.2-.3 19.2-.2v23h19V68h-9.7c-7 0-10.7.5-13.1 1.7zm3.8 47.8V142h-14.5c-8 0-14.5-.2-14.5-.5 0-.6 26-45.7 27.2-47.3.6-.6 1.2-1.2 1.4-1.2.2 0 .4 11 .4 24.5zM169.5 68.8c-.6.4-2.7 3.4-4.9 6.7-2.1 3.3-4.8 7-5.9 8.2-2.2 2.4-1 3.1 2.4 1.3 1.8-1 1.9-.6 1.9 15.9v16.9l4.5.4 4.5.3V93.3c0-13.9-.3-25.3-.7-25.3-.5 0-1.3.4-1.8.8zM180.7 72.5c.8 2.5 1.9 4.8 2.4 5.1.5.3 3.4-.7 6.5-2.2 4.4-2.2 7.4-2.8 15.1-3.2l9.7-.5-3.6 4.4c-6.1 7.5-12.7 18.5-18.8 31.2-5.2 10.9-12.5 29.6-11.8 30.3.2.1 2.4 0 5-.3l4.8-.6 2.6-8.6c4.4-14.6 16.2-40.6 23.8-52.6 1.8-2.8 3.6-5.6 4-6.3.6-.9-3.7-1.2-20.3-1.2h-21l1.6 4.5zM322 223.5c-45.8 6.4-86.1 26.5-119 59.5-18.1 18.1-28.9 33.4-40.6 57.5-24.1 49.6-26.5 108.6-6.7 160.8 15.7 41.7 44.4 77.3 81.8 101.6 11.4 7.5 26.8 15.3 39.4 20.2 5.7 2.2 8.5 2.8 11.3 2.4 4.5-.8 8.3-4.4 9.2-8.6.9-4.5.8-37.9-.1-37.9-.5 0-2.6.5-4.8 1-2.2.6-8.9 1-15 1.1-17.6 0-28.1-3.8-38.8-14-5-4.7-6.9-7.7-12.3-18.9-5.5-11.5-7.3-14.2-13.2-20-3.7-3.7-8.4-7.8-10.4-9.2-2-1.4-4.2-3.5-4.9-4.8-2-3.5.1-4.7 7.9-4.6 12.3.1 22.2 7.2 34.4 24.4 10 14.1 21.4 19.7 37.7 18.7 4.7-.3 11.1-1.4 14.1-2.5 5.4-1.9 5.5-1.9 6.3-6.8.9-5.6 6.9-18.3 9.8-21 2.5-2.3 2.4-3.4-.4-3.4-4.7 0-21.4-3.3-29.2-5.7-35.6-11.2-55.3-35.6-60.6-75.1-1.5-11.3-.7-36 1.5-43.7 2.3-8.2 7.7-18.7 13.6-26.6l4.9-6.6-1.5-4.9c-3.4-11.3-2.8-26.6 1.8-42.2l2.1-7.2h4.2c10.3 0 28.1 6.7 44.8 16.9l8.2 5 8-1.9c20.5-5 58.6-5.3 83-.6l12.9 2.5 6.2-3.9c16.1-10.2 31.8-16.6 43.5-17.6l6.6-.7 2.1 6.4c4.5 13.8 5.2 27.8 2.2 42.4l-1.3 6.1 4.8 6.4c13.9 19 18.6 38.9 15.5 66.5-5.5 49.7-31.1 74.9-83.7 82.5-4.6.7-8.3 1.5-8.3 1.7 0 .3 1.1 1.9 2.6 3.5 1.4 1.7 3.6 5.3 5 8 4.6 9 5.4 17 5.4 52.5 0 35.3.3 37.8 5.6 40.2 6 2.7 16.8-.4 36.5-10.5 69.7-35.6 113-106.2 112.9-184.1 0-31.7-5.9-57.7-20.3-88.3-25.5-54.7-79.3-98.2-139.2-112.5-22.1-5.3-53.7-7-75.5-4z"/></svg>