<svg xmlns="http://www.w3.org/2000/svg" viewBox="0 0 370 370">
  <g id="Background">
    <path
       id="bgshield"
       d="m 15,5 v 300 a 40,40 90 0 0 40,40 h 102 a 40,40 60 0 1 28,20 a 40,40 60 0 1 28,-20 h 102 a 40,40 90 0 0 40,-40 v -300 z"
       style="fill:white;fill-opacity:1;stroke:black;stroke-width:1;stroke-linejoin:round;stroke-miterlimit:4;stroke-dasharray:none;stroke-opacity:1" />
  </g>
  <g id="A17" transform="translate(44,42)">
    <path
       id="letterA"
       d="m 10,233 l 84,-146 C 102.8,73 110,54 132,54 h 23 v 179 h-29 v-38 h-62.2 l 12.7,-22 h 49.5 v-82 c -5,2 -7.5,10 -11,15 L 42,233 z"
       style="fill:#ff0000;stroke:none;stroke-width:0.25;stroke-linecap:butt;stroke-linejoin:miter;stroke-miterlimit:4;stroke-dasharray:none;stroke-opacity:1" />
    <path
       id="digit1"
       d="m 185,127 v -50 c -3,2.5 -7,5 -11,6 16,-14 17,-29 24,-29 v 80 c -4,-1 -9,-1 -13,0 z"
       style="fill:#00005c;fill-opacity:1;stroke:#000000;stroke-width:0.25;stroke-linecap:butt;stroke-linejoin:round;stroke-miterlimit:4;stroke-dasharray:none;stroke-opacity:1" />
    <path
       id="digit7"
       d="m 212,165 c 17,-54 42,-92 56,-106 -23,0 -37,0 -50,11 c -6,-5 -5,-16 -8,-16 h 66 c -13,19 -41,72 -49,109 -5,0 -11,1 -15,2 z"
       style="fill:#00005c;fill-opacity:1;stroke:#000000;stroke-width:0.25;stroke-linecap:butt;stroke-linejoin:miter;stroke-miterlimit:4;stroke-dasharray:none;stroke-opacity:1" />
  </g>
</svg>